# xmcd CD database file
#
# Track frame offsets:
#	182
#	9230
#	34115
#	50197
#	61350
#	76875
#	89457
#	121150
#	138400
#	145940
#	154415
#
# Disc length: 2260 seconds
#
# Revision: 6
# Processed by: cddbd v1.5.2PL0 Copyright (c) Steve Scherf et al.
# Submitted via: jetAudio 7
#
DISCID=9108d20b
DTITLE=Various Artist - Caetano and Chico - Juntos E Ao Vivo
DYEAR=1990
DGENRE=MPB
TTITLE0=Chico Buarque - Bom Conselho
TTITLE1=Caetano Veloso - Partido Alto
TTITLE2=Caetano Veloso - Tropicália
TTITLE3=Caetano Veloso - Morena Dos Olhos D'Água
TTITLE4=Caetano Veloso - A Rita - Esse Cara
TTITLE5=Chico Buarque - Atrás Da Porta
TTITLE6=Chico and Caetano - Você  Não Entende Nada - Cotidiano
TTITLE7=Chico and Caetano - Bárbara
TTITLE8=Chico Buarque - Ana De Amsterdam
TTITLE9=Chico Buarque - Janelas Abertas Nº2
TTITLE10=Caetano Veloso - Os Argonautas
EXTD=YEAR: 1972
EXTT0=
EXTT1=
EXTT2=
EXTT3=
EXTT4=Esse Cara
EXTT5=
EXTT6=Cotidiano
EXTT7=
EXTT8=
EXTT9=
EXTT10=
PLAYORDER=
